<?xml version="1.0" encoding="UTF-8" standalone="no"?>
<!DOCTYPE svg PUBLIC "-//W3C//DTD SVG 1.1//EN" "http://www.w3.org/Graphics/SVG/1.1/DTD/svg11.dtd">
<svg version="1.1" xmlns="http://www.w3.org/2000/svg" xmlns:xlink="http://www.w3.org/1999/xlink" preserveAspectRatio="xMidYMid meet" viewBox="0 0 640 640" width="640" height="640"><defs><path d="M254.63 190.95L259.66 192.71L264.56 194.79L269.34 197.19L273.96 199.92L278.41 202.96L282.67 206.32L286.72 210.01L290.55 214.01L294.12 218.33L297.43 222.98L300.45 227.94L303.17 233.23L305.57 238.84L307.62 244.76L309.31 251.01L320 296.59L136.95 296.59L147.64 251.01L149.33 244.76L151.38 238.84L153.78 233.23L156.5 227.94L159.52 222.98L162.83 218.33L166.4 214.01L170.23 210.01L174.28 206.32L178.54 202.96L182.99 199.92L187.61 197.19L192.39 194.79L197.29 192.71L202.32 190.95L207.43 189.51L212.63 188.38L217.88 187.58L223.17 187.1L228.48 186.94L233.78 187.1L239.07 187.58L244.32 188.38L249.52 189.51L249.52 189.51L254.63 190.95ZM432.57 189.51L437.68 190.95L442.71 192.71L447.61 194.79L452.39 197.19L457.01 199.92L461.46 202.96L465.72 206.32L469.77 210.01L473.6 214.01L477.17 218.33L480.48 222.98L483.5 227.94L486.22 233.23L488.62 238.84L490.67 244.76L492.36 251.01L503.05 296.59L320 296.59L330.69 251.01L332.38 244.76L334.43 238.84L336.83 233.23L339.55 227.94L342.57 222.98L345.88 218.33L349.45 214.01L353.28 210.01L357.33 206.32L361.59 202.96L366.04 199.92L370.66 197.19L375.44 194.79L380.34 192.71L385.37 190.95L390.48 189.51L395.68 188.38L400.93 187.58L406.22 187.1L411.53 186.94L416.83 187.1L422.12 187.58L427.37 188.38L427.37 188.38L432.57 189.51Z" id="ac1Ic0sb9"></path><path d="M177.47 585.26L211.37 585.26L320 333.16L320 247.73L196.99 537.39L53.05 54.74L20 55.05L177.47 585.26Z" id="b3jb9a7W5O"></path><path d="M462.53 585.26L428.63 585.26L320 333.16L320 247.73L443.01 537.39L586.95 54.74L620 55.05L462.53 585.26Z" id="ahrFkJLvP"></path><path d="M620 320C620 485.57 485.57 620 320 620C154.43 620 20 485.57 20 320C20 154.43 154.43 20 320 20C485.57 20 620 154.43 620 320Z" id="ibEZT5wxH"></path><path d="" id="g58IRJHOUA"></path></defs><g><g><g><g><use xlink:href="#ac1Ic0sb9" opacity="1" fill-opacity="0" stroke="#000000" stroke-width="33" stroke-opacity="1"></use></g></g><g><use xlink:href="#b3jb9a7W5O" opacity="1" fill="#000000" fill-opacity="1"></use><g><use xlink:href="#b3jb9a7W5O" opacity="1" fill-opacity="0" stroke="#000000" stroke-width="1" stroke-opacity="1"></use></g></g><g><use xlink:href="#ahrFkJLvP" opacity="1" fill="#000000" fill-opacity="1"></use><g><use xlink:href="#ahrFkJLvP" opacity="1" fill-opacity="0" stroke="#000000" stroke-width="1" stroke-opacity="1"></use></g></g><g><use xlink:href="#ibEZT5wxH" opacity="1" fill="#c70c15" fill-opacity="0"></use><g><use xlink:href="#ibEZT5wxH" opacity="1" fill-opacity="0" stroke="#0f0f0f" stroke-width="33" stroke-opacity="1"></use></g></g><g><g><use xlink:href="#g58IRJHOUA" opacity="1" fill-opacity="0" stroke="#050505" stroke-width="3" stroke-opacity="1"></use></g></g></g></g></svg>